<?xml version="1.0" standalone="no"?>
<!DOCTYPE svg PUBLIC "-//W3C//DTD SVG 20010904//EN"
 "http://www.w3.org/TR/2001/REC-SVG-20010904/DTD/svg10.dtd">
<svg version="1.0" xmlns="http://www.w3.org/2000/svg"
 width="319.000000pt" height="319.000000pt" viewBox="0 0 319.000000 319.000000"
 preserveAspectRatio="xMidYMid meet">

<g transform="translate(0.000000,319.000000) scale(0.100000,-0.100000)"
fill="#000000" stroke="none">
<path d="M10 1595 l0 -1585 1585 0 1585 0 0 1585 0 1585 -1585 0 -1585 0 0
-1585z m810 105 l0 -870 155 0 156 0 -3 -107 -3 -108 -260 0 -260 0 -3 978 -2
977 110 0 110 0 0 -870z m990 766 l0 -103 -68 -7 c-204 -20 -300 -165 -247
-370 20 -78 85 -209 190 -386 154 -261 190 -402 149 -598 -32 -157 -118 -273
-251 -339 -69 -34 -85 -38 -174 -41 l-99 -4 0 104 0 105 61 7 c204 21 298 168
243 380 -18 70 -94 225 -183 374 -135 226 -166 315 -165 472 1 305 185 508
462 509 l82 1 0 -104z m780 -1 l0 -105 -160 0 -160 0 0 -315 0 -315 150 0 150
0 0 -115 0 -115 -150 0 -150 0 2 -332 3 -333 158 -3 157 -3 0 -109 0 -110
-262 2 -263 3 -3 978 -2 977 265 0 265 0 0 -105z"/>
</g>
</svg>
